<svg height="512" viewBox="0 0 32 32" width="512" xmlns="http://www.w3.org/2000/svg"><g id="_25-Hot-sale" data-name="25-Hot-sale"><path d="m19 30a1 1 0 0 1 -1-1.26c1.47-5.42.67-8.43-.38-10a10.83 10.83 0 0 1 -1.86 6.9 1 1 0 0 1 -1.35.23 7.73 7.73 0 0 1 -2.66-2.94 9.08 9.08 0 0 0 1.07 5.6 1 1 0 0 1 -1.14 1.47c-.27-.14-6.68-2.38-6.68-11a23 23 0 0 1 2.11-9.45 1 1 0 0 1 1.89.45c0 .85 1 1.94 1.88 2.65 3.47-4.21.43-8.89.29-9.1a1 1 0 0 1 -.05-1 1 1 0 0 1 .88-.55 9.38 9.38 0 0 1 7.25 2.86 12 12 0 0 1 2.75 7.14 7.08 7.08 0 0 0 1.12-1.49 1 1 0 0 1 .73-.54 1 1 0 0 1 .87.28c.22.28 2.28 2.52 2.28 8.75a11.33 11.33 0 0 1 -7.73 11 .84.84 0 0 1 -.27 0zm-3-15a1.19 1.19 0 0 1 .32.05c.26.09 6.1 2.17 4.12 12.21a9.09 9.09 0 0 0 4.56-8.26 15.25 15.25 0 0 0 -1-6.15 7.86 7.86 0 0 1 -2.5 2 1 1 0 0 1 -1-.06 1 1 0 0 1 -.44-.92c0-.05.39-4.83-2.24-7.7a6.75 6.75 0 0 0 -4.05-2.08 9.46 9.46 0 0 1 -2 10.58 1 1 0 0 1 -1.26.12 10.7 10.7 0 0 1 -2.4-2.21 21.37 21.37 0 0 0 -1.11 6.42 9.78 9.78 0 0 0 3 7.54 8.24 8.24 0 0 1 1.2-7.14 1 1 0 0 1 1.8.6 5.28 5.28 0 0 0 1.73 3.51 8.58 8.58 0 0 0 .34-7.14 1 1 0 0 1 .2-1.06 1 1 0 0 1 .73-.31z"/></g></svg>