<?xml version="1.0"?>
<svg xmlns="http://www.w3.org/2000/svg" viewBox="0 0 32 32" width="512" height="512"><g id="_15" data-name="15"><path d="M29.71,15.29l-4-4A1,1,0,0,0,25,11H20V6a2,2,0,0,0-2-2H5A3,3,0,0,0,2,7V9A1,1,0,0,0,4,9V7A1,1,0,0,1,5,6H18V18a1,1,0,0,0,2,0V13h4.59L28,16.41V23H25.86a4,4,0,0,0-7.72,0H12.86a4,4,0,0,0-7.73,0A.5.5,0,0,0,5,23H4V12a1,1,0,0,0-2,0V23a2,2,0,0,0,2,2H5a.5.5,0,0,0,.13,0,4,4,0,0,0,7.73,0h5.28a4,4,0,0,0,7.72,0H28a2,2,0,0,0,2-2V16A1,1,0,0,0,29.71,15.29ZM9,26a2,2,0,1,1,2-2A2,2,0,0,1,9,26Zm13,0a2,2,0,1,1,2-2A2,2,0,0,1,22,26Z"/><path d="M9.29,17.71A1,1,0,0,0,10,18h0a1,1,0,0,0,.73-.36l5-6a1,1,0,0,0-1.54-1.28l-4.3,5.16L7.71,13.29a1,1,0,0,0-1.42,1.42Z"/></g></svg>
